<svg width="327" height="56" viewBox="0 0 327 56" fill="none" xmlns="http://www.w3.org/2000/svg">
<g filter="url(#filter0_n_2970_192)">
<path d="M10.5098 40.939H15.6006V43.4849H20.6914V46.0308H25.7822V48.5757H30.873V46.0308H35.9639V43.4849H41.0547V40.939H46.1455V38.394H51.2363V43.4849H46.1455V46.0308H41.0547V48.5757H35.9639V51.1216H30.873V53.6665H25.7822V51.1216H20.6914V48.5757H15.6006V46.0308H10.5098V43.4849H5.41895V38.394H10.5098V40.939ZM34.0576 31.8784H38.0967V33.8979H42.1348V37.936H38.0967V35.9165H34.0576V33.8979H30.0195V31.8784H25.9814V33.8979H21.9424V35.9165H17.9043V37.936H13.8652V33.8979H17.9043V31.8784H21.9424V29.8589H34.0576V31.8784ZM17.9043 20.0835H21.9424V22.1021H25.9814V24.1216H30.0195V22.1021H34.0576V20.0835H38.0967V18.064H42.1348V22.1021H38.0967V24.1216H34.0576V26.1411H21.9424V24.1216H17.9043V22.1021H13.8652V18.064H17.9043V20.0835ZM30.5449 4.87842H35.6357V7.42432H40.7266V9.96924H45.8174V12.5151H50.9082V17.606H45.8174V15.061H40.7266V12.5151H35.6357V9.96924H30.5449V7.42432H25.4541V9.96924H20.3633V12.5151H15.2725V15.061H10.1816V17.606H5.09082V12.5151H10.1816V9.96924H15.2725V7.42432H20.3633V4.87842H25.4541V2.3335H30.5449V4.87842Z" fill="url(#paint0_radial_2970_192)"/>
</g>
<path d="M64 14.7857H66.5714V17.3571H64V14.7857ZM66.5714 14.7857H69.1429V17.3571H66.5714V14.7857ZM69.1429 14.7857H71.7143V17.3571H69.1429V14.7857ZM71.7143 14.7857H74.2857V17.3571H71.7143V14.7857ZM74.2857 14.7857H76.8571V17.3571H74.2857V14.7857ZM76.8571 14.7857H79.4286V17.3571H76.8571V14.7857ZM76.8571 17.3571H79.4286V19.9286H76.8571V17.3571ZM74.2857 17.3571H76.8571V19.9286H74.2857V17.3571ZM71.7143 17.3571H74.2857V19.9286H71.7143V17.3571ZM69.1429 17.3571H71.7143V19.9286H69.1429V17.3571ZM66.5714 17.3571H69.1429V19.9286H66.5714V17.3571ZM64 17.3571H66.5714V19.9286H64V17.3571ZM69.1429 19.9286H71.7143V22.5H69.1429V19.9286ZM69.1429 22.5H71.7143V25.0714H69.1429V22.5ZM69.1429 25.0714H71.7143V27.6429H69.1429V25.0714ZM69.1429 27.6429H71.7143V30.2143H69.1429V27.6429ZM69.1429 30.2143H71.7143V32.7857H69.1429V30.2143ZM69.1429 32.7857H71.7143V35.3571H69.1429V32.7857ZM71.7143 30.2143H74.2857V32.7857H71.7143V30.2143ZM71.7143 27.6429H74.2857V30.2143H71.7143V27.6429ZM71.7143 25.0714H74.2857V27.6429H71.7143V25.0714ZM71.7143 22.5H74.2857V25.0714H71.7143V22.5ZM71.7143 19.9286H74.2857V22.5H71.7143V19.9286ZM71.7143 32.7857H74.2857V35.3571H71.7143V32.7857ZM71.7143 35.3571H74.2857V37.9286H71.7143V35.3571ZM71.7143 37.9286H74.2857V40.5H71.7143V37.9286ZM69.1429 37.9286H71.7143V40.5H69.1429V37.9286ZM69.1429 35.3571H71.7143V37.9286H69.1429V35.3571ZM82 14.7857H84.5714V17.3571H82V14.7857ZM84.5714 14.7857H87.1429V17.3571H84.5714V14.7857ZM84.5714 17.3571H87.1429V19.9286H84.5714V17.3571ZM84.5714 19.9286H87.1429V22.5H84.5714V19.9286ZM84.5714 22.5H87.1429V25.0714H84.5714V22.5ZM82 19.9286H84.5714V22.5H82V19.9286ZM82 17.3571H84.5714V19.9286H82V17.3571ZM82 22.5H84.5714V25.0714H82V22.5ZM82 25.0714H84.5714V27.6429H82V25.0714ZM82 30.2143H84.5714V32.7857H82V30.2143ZM82 27.6429H84.5714V30.2143H82V27.6429ZM84.5714 25.0714H87.1429V27.6429H84.5714V25.0714ZM84.5714 27.6429H87.1429V30.2143H84.5714V27.6429ZM84.5714 30.2143H87.1429V32.7857H84.5714V30.2143ZM84.5714 32.7857H87.1429V35.3571H84.5714V32.7857ZM82 32.7857H84.5714V35.3571H82V32.7857ZM82 37.9286H84.5714V40.5H82V37.9286ZM84.5714 37.9286H87.1429V40.5H84.5714V37.9286ZM84.5714 35.3571H87.1429V37.9286H84.5714V35.3571ZM82 35.3571H84.5714V37.9286H82V35.3571ZM97.4286 37.9286H100V40.5H97.4286V37.9286ZM97.4286 35.3571H100V37.9286H97.4286V35.3571ZM97.4286 32.7857H100V35.3571H97.4286V32.7857ZM97.4286 30.2143H100V32.7857H97.4286V30.2143ZM97.4286 27.6429H100V30.2143H97.4286V27.6429ZM97.4286 25.0714H100V27.6429H97.4286V25.0714ZM97.4286 14.7857H100V17.3571H97.4286V14.7857ZM94.8571 14.7857H97.4286V17.3571H94.8571V14.7857ZM94.8571 17.3571H97.4286V19.9286H94.8571V17.3571ZM94.8571 19.9286H97.4286V22.5H94.8571V19.9286ZM94.8571 22.5H97.4286V25.0714H94.8571V22.5ZM97.4286 22.5H100V25.0714H97.4286V22.5ZM97.4286 19.9286H100V22.5H97.4286V19.9286ZM97.4286 17.3571H100V19.9286H97.4286V17.3571ZM94.8571 25.0714H97.4286V27.6429H94.8571V25.0714ZM94.8571 35.3571H97.4286V37.9286H94.8571V35.3571ZM94.8571 32.7857H97.4286V35.3571H94.8571V32.7857ZM94.8571 30.2143H97.4286V32.7857H94.8571V30.2143ZM94.8571 27.6429H97.4286V30.2143H94.8571V27.6429ZM94.8571 37.9286H97.4286V40.5H94.8571V37.9286ZM92.2857 25.0714H94.8571V27.6429H92.2857V25.0714ZM89.7143 25.0714H92.2857V27.6429H89.7143V25.0714ZM87.1429 25.0714H89.7143V27.6429H87.1429V25.0714ZM87.1429 27.6429H89.7143V30.2143H87.1429V27.6429ZM89.7143 27.6429H92.2857V30.2143H89.7143V27.6429ZM92.2857 27.6429H94.8571V30.2143H92.2857V27.6429ZM102.578 14.7857H105.15V17.3571H102.578V14.7857ZM105.15 14.7857H107.721V17.3571H105.15V14.7857ZM105.15 17.3571H107.721V19.9286H105.15V17.3571ZM105.15 19.9286H107.721V22.5H105.15V19.9286ZM105.15 22.5H107.721V25.0714H105.15V22.5ZM102.578 22.5H105.15V25.0714H102.578V22.5ZM102.578 19.9286H105.15V22.5H102.578V19.9286ZM102.578 17.3571H105.15V19.9286H102.578V17.3571ZM102.578 25.0714H105.15V27.6429H102.578V25.0714ZM102.578 27.6429H105.15V30.2143H102.578V27.6429ZM102.578 30.2143H105.15V32.7857H102.578V30.2143ZM105.15 27.6429H107.721V30.2143H105.15V27.6429ZM105.15 25.0714H107.721V27.6429H105.15V25.0714ZM105.15 30.2143H107.721V32.7857H105.15V30.2143ZM105.15 32.7857H107.721V35.3571H105.15V32.7857ZM102.578 35.3571H105.15V37.9286H102.578V35.3571ZM102.578 32.7857H105.15V35.3571H102.578V32.7857ZM102.578 37.9286H105.15V40.5H102.578V37.9286ZM105.15 37.9286H107.721V40.5H105.15V37.9286ZM105.15 35.3571H107.721V37.9286H105.15V35.3571ZM107.721 37.9286H110.292V40.5H107.721V37.9286ZM110.292 37.9286H112.864V40.5H110.292V37.9286ZM112.864 37.9286H115.435V40.5H112.864V37.9286ZM112.864 35.3571H115.435V37.9286H112.864V35.3571ZM110.292 35.3571H112.864V37.9286H110.292V35.3571ZM107.721 35.3571H110.292V37.9286H107.721V35.3571ZM107.721 14.7857H110.292V17.3571H107.721V14.7857ZM110.292 14.7857H112.864V17.3571H110.292V14.7857ZM112.864 14.7857H115.435V17.3571H112.864V14.7857ZM115.435 14.7857H118.007V17.3571H115.435V14.7857ZM112.864 17.3571H115.435V19.9286H112.864V17.3571ZM110.292 17.3571H112.864V19.9286H110.292V17.3571ZM107.721 17.3571H110.292V19.9286H107.721V17.3571ZM107.721 27.6429H110.292V30.2143H107.721V27.6429ZM110.292 25.0714H112.864V27.6429H110.292V25.0714ZM107.721 25.0714H110.292V27.6429H107.721V25.0714ZM110.292 27.6429H112.864V30.2143H110.292V27.6429ZM115.435 17.3571H118.007V19.9286H115.435V17.3571ZM115.435 35.3571H118.007V37.9286H115.435V35.3571ZM115.435 37.9286H118.007V40.5H115.435V37.9286ZM112.864 25.0714H115.435V27.6429H112.864V25.0714ZM112.864 27.6429H115.435V30.2143H112.864V27.6429ZM135.987 14.7857H138.558V17.3571H135.987V14.7857ZM133.415 14.7857H135.987V17.3571H133.415V14.7857ZM133.415 17.3571H135.987V19.9286H133.415V17.3571ZM135.987 17.3571H138.558V19.9286H135.987V17.3571ZM138.558 17.3571H141.129V19.9286H138.558V17.3571ZM138.558 14.7857H141.129V17.3571H138.558V14.7857ZM141.129 14.7857H143.701V17.3571H141.129V14.7857ZM143.701 14.7857H146.272V17.3571H143.701V14.7857ZM143.701 17.3571H146.272V19.9286H143.701V17.3571ZM141.129 17.3571H143.701V19.9286H141.129V17.3571ZM143.701 19.9286H146.272V22.5H143.701V19.9286ZM146.272 17.3571H148.844V19.9286H146.272V17.3571ZM146.272 19.9286H148.844V22.5H146.272V19.9286ZM146.272 32.7857H148.844V35.3571H146.272V32.7857ZM146.272 35.3571H148.844V37.9286H146.272V35.3571ZM143.701 35.3571H146.272V37.9286H143.701V35.3571ZM143.701 32.7857H146.272V35.3571H143.701V32.7857ZM141.129 35.3571H143.701V37.9286H141.129V35.3571ZM143.701 37.9286H146.272V40.5H143.701V37.9286ZM141.129 37.9286H143.701V40.5H141.129V37.9286ZM138.558 37.9286H141.129V40.5H138.558V37.9286ZM138.558 35.3571H141.129V37.9286H138.558V35.3571ZM135.987 37.9286H138.558V40.5H135.987V37.9286ZM133.415 37.9286H135.987V40.5H133.415V37.9286ZM133.415 35.3571H135.987V37.9286H133.415V35.3571ZM135.987 35.3571H138.558V37.9286H135.987V35.3571ZM135.987 32.7857H138.558V35.3571H135.987V32.7857ZM133.415 32.7857H135.987V35.3571H133.415V32.7857ZM130.844 35.3571H133.415V37.9286H130.844V35.3571ZM130.844 32.7857H133.415V35.3571H130.844V32.7857ZM130.844 30.2143H133.415V32.7857H130.844V30.2143ZM130.844 27.6429H133.415V30.2143H130.844V27.6429ZM130.844 25.0714H133.415V27.6429H130.844V25.0714ZM130.844 22.5H133.415V25.0714H130.844V22.5ZM130.844 19.9286H133.415V22.5H130.844V19.9286ZM133.415 19.9286H135.987V22.5H133.415V19.9286ZM130.844 17.3571H133.415V19.9286H130.844V17.3571ZM135.987 19.9286H138.558V22.5H135.987V19.9286ZM133.415 22.5H135.987V25.0714H133.415V22.5ZM133.415 25.0714H135.987V27.6429H133.415V25.0714ZM133.415 27.6429H135.987V30.2143H133.415V27.6429ZM133.415 30.2143H135.987V32.7857H133.415V30.2143ZM146.272 30.2143H148.844V32.7857H146.272V30.2143ZM143.701 30.2143H146.272V32.7857H143.701V30.2143ZM143.701 27.6429H146.272V30.2143H143.701V27.6429ZM146.272 27.6429H148.844V30.2143H146.272V27.6429ZM146.272 25.0714H148.844V27.6429H146.272V25.0714ZM143.701 25.0714H146.272V27.6429H143.701V25.0714ZM141.129 25.0714H143.701V27.6429H141.129V25.0714ZM138.558 25.0714H141.129V27.6429H138.558V25.0714ZM138.558 27.6429H141.129V30.2143H138.558V27.6429ZM141.129 27.6429H143.701V30.2143H141.129V27.6429ZM151.422 14.7857H153.993V17.3571H151.422V14.7857ZM153.993 14.7857H156.565V17.3571H153.993V14.7857ZM153.993 17.3571H156.565V19.9286H153.993V17.3571ZM153.993 19.9286H156.565V22.5H153.993V19.9286ZM153.993 22.5H156.565V25.0714H153.993V22.5ZM151.422 22.5H153.993V25.0714H151.422V22.5ZM151.422 19.9286H153.993V22.5H151.422V19.9286ZM151.422 17.3571H153.993V19.9286H151.422V17.3571ZM151.422 25.0714H153.993V27.6429H151.422V25.0714ZM151.422 27.6429H153.993V30.2143H151.422V27.6429ZM151.422 30.2143H153.993V32.7857H151.422V30.2143ZM153.993 27.6429H156.565V30.2143H153.993V27.6429ZM153.993 25.0714H156.565V27.6429H153.993V25.0714ZM153.993 30.2143H156.565V32.7857H153.993V30.2143ZM153.993 32.7857H156.565V35.3571H153.993V32.7857ZM151.422 35.3571H153.993V37.9286H151.422V35.3571ZM151.422 32.7857H153.993V35.3571H151.422V32.7857ZM151.422 37.9286H153.993V40.5H151.422V37.9286ZM153.993 37.9286H156.565V40.5H153.993V37.9286ZM153.993 35.3571H156.565V37.9286H153.993V35.3571ZM156.565 37.9286H159.136V40.5H156.565V37.9286ZM159.136 37.9286H161.708V40.5H159.136V37.9286ZM161.708 37.9286H164.279V40.5H161.708V37.9286ZM161.708 35.3571H164.279V37.9286H161.708V35.3571ZM159.136 35.3571H161.708V37.9286H159.136V35.3571ZM156.565 35.3571H159.136V37.9286H156.565V35.3571ZM156.565 14.7857H159.136V17.3571H156.565V14.7857ZM159.136 14.7857H161.708V17.3571H159.136V14.7857ZM161.708 14.7857H164.279V17.3571H161.708V14.7857ZM164.279 14.7857H166.85V17.3571H164.279V14.7857ZM161.708 17.3571H164.279V19.9286H161.708V17.3571ZM159.136 17.3571H161.708V19.9286H159.136V17.3571ZM156.565 17.3571H159.136V19.9286H156.565V17.3571ZM156.565 27.6429H159.136V30.2143H156.565V27.6429ZM159.136 25.0714H161.708V27.6429H159.136V25.0714ZM156.565 25.0714H159.136V27.6429H156.565V25.0714ZM159.136 27.6429H161.708V30.2143H159.136V27.6429ZM164.279 17.3571H166.85V19.9286H164.279V17.3571ZM164.279 35.3571H166.85V37.9286H164.279V35.3571ZM164.279 37.9286H166.85V40.5H164.279V37.9286ZM161.708 25.0714H164.279V27.6429H161.708V25.0714ZM161.708 27.6429H164.279V30.2143H161.708V27.6429ZM177.136 27.6429H179.708V30.2143H177.136V27.6429ZM177.136 25.0714H179.708V27.6429H177.136V25.0714ZM179.708 25.0714H182.279V27.6429H179.708V25.0714ZM179.708 27.6429H182.279V30.2143H179.708V27.6429ZM179.708 30.2143H182.279V32.7857H179.708V30.2143ZM177.136 30.2143H179.708V32.7857H177.136V30.2143ZM177.136 19.9286H179.708V22.5H177.136V19.9286ZM177.136 22.5H179.708V25.0714H177.136V22.5ZM174.565 25.0714H177.136V27.6429H174.565V25.0714ZM174.565 22.5H177.136V25.0714H174.565V22.5ZM174.565 19.9286H177.136V22.5H174.565V19.9286ZM169.422 14.7857H171.993V17.3571H169.422V14.7857ZM171.993 14.7857H174.565V17.3571H171.993V14.7857ZM174.565 14.7857H177.136V17.3571H174.565V14.7857ZM174.565 17.3571H177.136V19.9286H174.565V17.3571ZM171.993 17.3571H174.565V19.9286H171.993V17.3571ZM169.422 17.3571H171.993V19.9286H169.422V17.3571ZM169.422 19.9286H171.993V22.5H169.422V19.9286ZM171.993 19.9286H174.565V22.5H171.993V19.9286ZM171.993 22.5H174.565V25.0714H171.993V22.5ZM171.993 25.0714H174.565V27.6429H171.993V25.0714ZM169.422 25.0714H171.993V27.6429H169.422V25.0714ZM169.422 22.5H171.993V25.0714H169.422V22.5ZM169.422 27.6429H171.993V30.2143H169.422V27.6429ZM171.993 27.6429H174.565V30.2143H171.993V27.6429ZM171.993 30.2143H174.565V32.7857H171.993V30.2143ZM171.993 32.7857H174.565V35.3571H171.993V32.7857ZM171.993 35.3571H174.565V37.9286H171.993V35.3571ZM171.993 37.9286H174.565V40.5H171.993V37.9286ZM169.422 37.9286H171.993V40.5H169.422V37.9286ZM169.422 35.3571H171.993V37.9286H169.422V35.3571ZM169.422 32.7857H171.993V35.3571H169.422V32.7857ZM169.422 30.2143H171.993V32.7857H169.422V30.2143ZM179.708 32.7857H182.279V35.3571H179.708V32.7857ZM179.708 35.3571H182.279V37.9286H179.708V35.3571ZM182.279 32.7857H184.85V35.3571H182.279V32.7857ZM182.279 30.2143H184.85V32.7857H182.279V30.2143ZM182.279 35.3571H184.85V37.9286H182.279V35.3571ZM182.279 37.9286H184.85V40.5H182.279V37.9286ZM184.85 37.9286H187.422V40.5H184.85V37.9286ZM187.422 37.9286H189.993V40.5H187.422V37.9286ZM187.422 35.3571H189.993V37.9286H187.422V35.3571ZM187.422 32.7857H189.993V35.3571H187.422V32.7857ZM184.85 32.7857H187.422V35.3571H184.85V32.7857ZM184.85 35.3571H187.422V37.9286H184.85V35.3571ZM184.85 30.2143H187.422V32.7857H184.85V30.2143ZM187.422 27.6429H189.993V30.2143H187.422V27.6429ZM187.422 25.0714H189.993V27.6429H187.422V25.0714ZM187.422 30.2143H189.993V32.7857H187.422V30.2143ZM184.85 27.6429H187.422V30.2143H184.85V27.6429ZM184.85 25.0714H187.422V27.6429H184.85V25.0714ZM184.85 22.5H187.422V25.0714H184.85V22.5ZM187.422 22.5H189.993V25.0714H187.422V22.5ZM187.422 19.9286H189.993V22.5H187.422V19.9286ZM184.85 14.7857H187.422V17.3571H184.85V14.7857ZM187.422 14.7857H189.993V17.3571H187.422V14.7857ZM187.422 17.3571H189.993V19.9286H187.422V17.3571ZM184.85 17.3571H187.422V19.9286H184.85V17.3571ZM184.85 19.9286H187.422V22.5H184.85V19.9286ZM192.578 14.7857H195.15V17.3571H192.578V14.7857ZM195.15 14.7857H197.721V17.3571H195.15V14.7857ZM195.15 17.3571H197.721V19.9286H195.15V17.3571ZM195.15 19.9286H197.721V22.5H195.15V19.9286ZM195.15 22.5H197.721V25.0714H195.15V22.5ZM192.578 22.5H195.15V25.0714H192.578V22.5ZM192.578 19.9286H195.15V22.5H192.578V19.9286ZM192.578 17.3571H195.15V19.9286H192.578V17.3571ZM192.578 25.0714H195.15V27.6429H192.578V25.0714ZM192.578 27.6429H195.15V30.2143H192.578V27.6429ZM192.578 30.2143H195.15V32.7857H192.578V30.2143ZM195.15 27.6429H197.721V30.2143H195.15V27.6429ZM195.15 25.0714H197.721V27.6429H195.15V25.0714ZM195.15 30.2143H197.721V32.7857H195.15V30.2143ZM195.15 32.7857H197.721V35.3571H195.15V32.7857ZM192.578 35.3571H195.15V37.9286H192.578V35.3571ZM192.578 32.7857H195.15V35.3571H192.578V32.7857ZM192.578 37.9286H195.15V40.5H192.578V37.9286ZM195.15 37.9286H197.721V40.5H195.15V37.9286ZM195.15 35.3571H197.721V37.9286H195.15V35.3571ZM197.721 37.9286H200.292V40.5H197.721V37.9286ZM200.292 37.9286H202.864V40.5H200.292V37.9286ZM202.864 37.9286H205.435V40.5H202.864V37.9286ZM202.864 35.3571H205.435V37.9286H202.864V35.3571ZM200.292 35.3571H202.864V37.9286H200.292V35.3571ZM197.721 35.3571H200.292V37.9286H197.721V35.3571ZM197.721 14.7857H200.292V17.3571H197.721V14.7857ZM200.292 14.7857H202.864V17.3571H200.292V14.7857ZM202.864 14.7857H205.435V17.3571H202.864V14.7857ZM205.435 14.7857H208.007V17.3571H205.435V14.7857ZM202.864 17.3571H205.435V19.9286H202.864V17.3571ZM200.292 17.3571H202.864V19.9286H200.292V17.3571ZM197.721 17.3571H200.292V19.9286H197.721V17.3571ZM197.721 27.6429H200.292V30.2143H197.721V27.6429ZM200.292 25.0714H202.864V27.6429H200.292V25.0714ZM197.721 25.0714H200.292V27.6429H197.721V25.0714ZM200.292 27.6429H202.864V30.2143H200.292V27.6429ZM205.435 17.3571H208.007V19.9286H205.435V17.3571ZM205.435 35.3571H208.007V37.9286H205.435V35.3571ZM205.435 37.9286H208.007V40.5H205.435V37.9286ZM202.864 25.0714H205.435V27.6429H202.864V25.0714ZM202.864 27.6429H205.435V30.2143H202.864V27.6429ZM226.007 19.9286H228.578V22.5H226.007V19.9286ZM223.435 19.9286H226.007V22.5H223.435V19.9286ZM223.435 17.3571H226.007V19.9286H223.435V17.3571ZM226.007 17.3571H228.578V19.9286H226.007V17.3571ZM223.435 14.7857H226.007V17.3571H223.435V14.7857ZM220.864 14.7857H223.435V17.3571H220.864V14.7857ZM220.864 17.3571H223.435V19.9286H220.864V17.3571ZM218.292 17.3571H220.864V19.9286H218.292V17.3571ZM215.721 17.3571H218.292V19.9286H215.721V17.3571ZM215.721 14.7857H218.292V17.3571H215.721V14.7857ZM213.15 14.7857H215.721V17.3571H213.15V14.7857ZM218.292 14.7857H220.864V17.3571H218.292V14.7857ZM213.15 17.3571H215.721V19.9286H213.15V17.3571ZM210.578 17.3571H213.15V19.9286H210.578V17.3571ZM210.578 19.9286H213.15V22.5H210.578V19.9286ZM213.15 19.9286H215.721V22.5H213.15V19.9286ZM213.15 22.5H215.721V25.0714H213.15V22.5ZM213.15 25.0714H215.721V27.6429H213.15V25.0714ZM210.578 25.0714H213.15V27.6429H210.578V25.0714ZM210.578 22.5H213.15V25.0714H210.578V22.5ZM213.15 27.6429H215.721V30.2143H213.15V27.6429ZM215.721 27.6429H218.292V30.2143H215.721V27.6429ZM215.721 25.0714H218.292V27.6429H215.721V25.0714ZM218.292 25.0714H220.864V27.6429H218.292V25.0714ZM220.864 25.0714H223.435V27.6429H220.864V25.0714ZM223.435 25.0714H226.007V27.6429H223.435V25.0714ZM223.435 27.6429H226.007V30.2143H223.435V27.6429ZM220.864 27.6429H223.435V30.2143H220.864V27.6429ZM218.292 27.6429H220.864V30.2143H218.292V27.6429ZM226.007 27.6429H228.578V30.2143H226.007V27.6429ZM226.007 30.2143H228.578V32.7857H226.007V30.2143ZM223.435 30.2143H226.007V32.7857H223.435V30.2143ZM220.864 35.3571H223.435V37.9286H220.864V35.3571ZM223.435 35.3571H226.007V37.9286H223.435V35.3571ZM223.435 32.7857H226.007V35.3571H223.435V32.7857ZM226.007 32.7857H228.578V35.3571H226.007V32.7857ZM226.007 35.3571H228.578V37.9286H226.007V35.3571ZM223.435 37.9286H226.007V40.5H223.435V37.9286ZM220.864 37.9286H223.435V40.5H220.864V37.9286ZM218.292 37.9286H220.864V40.5H218.292V37.9286ZM215.721 37.9286H218.292V40.5H215.721V37.9286ZM213.15 37.9286H215.721V40.5H213.15V37.9286ZM213.15 35.3571H215.721V37.9286H213.15V35.3571ZM215.721 35.3571H218.292V37.9286H215.721V35.3571ZM218.292 35.3571H220.864V37.9286H218.292V35.3571ZM210.578 35.3571H213.15V37.9286H210.578V35.3571ZM210.578 32.7857H213.15V35.3571H210.578V32.7857ZM213.15 32.7857H215.721V35.3571H213.15V32.7857ZM231.156 37.9286H233.728V40.5H231.156V37.9286ZM233.728 37.9286H236.299V40.5H233.728V37.9286ZM233.728 35.3571H236.299V37.9286H233.728V35.3571ZM233.728 32.7857H236.299V35.3571H233.728V32.7857ZM233.728 30.2143H236.299V32.7857H233.728V30.2143ZM233.728 27.6429H236.299V30.2143H233.728V27.6429ZM233.728 25.0714H236.299V27.6429H233.728V25.0714ZM231.156 25.0714H233.728V27.6429H231.156V25.0714ZM231.156 27.6429H233.728V30.2143H231.156V27.6429ZM231.156 30.2143H233.728V32.7857H231.156V30.2143ZM231.156 32.7857H233.728V35.3571H231.156V32.7857ZM231.156 35.3571H233.728V37.9286H231.156V35.3571ZM231.156 22.5H233.728V25.0714H231.156V22.5ZM233.728 22.5H236.299V25.0714H233.728V22.5ZM233.728 19.9286H236.299V22.5H233.728V19.9286ZM233.728 17.3571H236.299V19.9286H233.728V17.3571ZM233.728 14.7857H236.299V17.3571H233.728V14.7857ZM231.156 14.7857H233.728V17.3571H231.156V14.7857ZM231.156 17.3571H233.728V19.9286H231.156V17.3571ZM231.156 19.9286H233.728V22.5H231.156V19.9286ZM254.319 19.9286H256.891V22.5H254.319V19.9286ZM251.748 19.9286H254.319V22.5H251.748V19.9286ZM251.748 17.3571H254.319V19.9286H251.748V17.3571ZM254.319 17.3571H256.891V19.9286H254.319V17.3571ZM251.748 14.7857H254.319V17.3571H251.748V14.7857ZM249.176 14.7857H251.748V17.3571H249.176V14.7857ZM249.176 17.3571H251.748V19.9286H249.176V17.3571ZM246.605 17.3571H249.176V19.9286H246.605V17.3571ZM244.033 17.3571H246.605V19.9286H244.033V17.3571ZM244.033 14.7857H246.605V17.3571H244.033V14.7857ZM241.462 14.7857H244.033V17.3571H241.462V14.7857ZM246.605 14.7857H249.176V17.3571H246.605V14.7857ZM241.462 17.3571H244.033V19.9286H241.462V17.3571ZM238.891 17.3571H241.462V19.9286H238.891V17.3571ZM238.891 19.9286H241.462V22.5H238.891V19.9286ZM241.462 19.9286H244.033V22.5H241.462V19.9286ZM241.462 22.5H244.033V25.0714H241.462V22.5ZM241.462 25.0714H244.033V27.6429H241.462V25.0714ZM238.891 25.0714H241.462V27.6429H238.891V25.0714ZM238.891 22.5H241.462V25.0714H238.891V22.5ZM241.462 27.6429H244.033V30.2143H241.462V27.6429ZM244.033 27.6429H246.605V30.2143H244.033V27.6429ZM244.033 25.0714H246.605V27.6429H244.033V25.0714ZM246.605 25.0714H249.176V27.6429H246.605V25.0714ZM249.176 25.0714H251.748V27.6429H249.176V25.0714ZM251.748 25.0714H254.319V27.6429H251.748V25.0714ZM251.748 27.6429H254.319V30.2143H251.748V27.6429ZM249.176 27.6429H251.748V30.2143H249.176V27.6429ZM246.605 27.6429H249.176V30.2143H246.605V27.6429ZM254.319 27.6429H256.891V30.2143H254.319V27.6429ZM254.319 30.2143H256.891V32.7857H254.319V30.2143ZM251.748 30.2143H254.319V32.7857H251.748V30.2143ZM249.176 35.3571H251.748V37.9286H249.176V35.3571ZM251.748 35.3571H254.319V37.9286H251.748V35.3571ZM251.748 32.7857H254.319V35.3571H251.748V32.7857ZM254.319 32.7857H256.891V35.3571H254.319V32.7857ZM254.319 35.3571H256.891V37.9286H254.319V35.3571ZM251.748 37.9286H254.319V40.5H251.748V37.9286ZM249.176 37.9286H251.748V40.5H249.176V37.9286ZM246.605 37.9286H249.176V40.5H246.605V37.9286ZM244.033 37.9286H246.605V40.5H244.033V37.9286ZM241.462 37.9286H244.033V40.5H241.462V37.9286ZM241.462 35.3571H244.033V37.9286H241.462V35.3571ZM244.033 35.3571H246.605V37.9286H244.033V35.3571ZM246.605 35.3571H249.176V37.9286H246.605V35.3571ZM238.891 35.3571H241.462V37.9286H238.891V35.3571ZM238.891 32.7857H241.462V35.3571H238.891V32.7857ZM241.462 32.7857H244.033V35.3571H241.462V32.7857ZM269.734 14.7857H272.306V17.3571H269.734V14.7857ZM272.306 14.7857H274.877V17.3571H272.306V14.7857ZM272.306 17.3571H274.877V19.9286H272.306V17.3571ZM272.306 19.9286H274.877V22.5H272.306V19.9286ZM272.306 22.5H274.877V25.0714H272.306V22.5ZM269.734 22.5H272.306V25.0714H269.734V22.5ZM269.734 19.9286H272.306V22.5H269.734V19.9286ZM269.734 17.3571H272.306V19.9286H269.734V17.3571ZM269.734 25.0714H272.306V27.6429H269.734V25.0714ZM269.734 27.6429H272.306V30.2143H269.734V27.6429ZM269.734 30.2143H272.306V32.7857H269.734V30.2143ZM272.306 27.6429H274.877V30.2143H272.306V27.6429ZM272.306 25.0714H274.877V27.6429H272.306V25.0714ZM272.306 30.2143H274.877V32.7857H272.306V30.2143ZM272.306 32.7857H274.877V35.3571H272.306V32.7857ZM269.734 35.3571H272.306V37.9286H269.734V35.3571ZM269.734 32.7857H272.306V35.3571H269.734V32.7857ZM269.734 37.9286H272.306V40.5H269.734V37.9286ZM272.306 37.9286H274.877V40.5H272.306V37.9286ZM272.306 35.3571H274.877V37.9286H272.306V35.3571ZM274.877 37.9286H277.449V40.5H274.877V37.9286ZM277.449 37.9286H280.02V40.5H277.449V37.9286ZM280.02 37.9286H282.592V40.5H280.02V37.9286ZM280.02 35.3571H282.592V37.9286H280.02V35.3571ZM277.449 35.3571H280.02V37.9286H277.449V35.3571ZM274.877 35.3571H277.449V37.9286H274.877V35.3571ZM290.299 14.7857H292.871V17.3571H290.299V14.7857ZM287.728 14.7857H290.299V17.3571H287.728V14.7857ZM287.728 17.3571H290.299V19.9286H287.728V17.3571ZM290.299 17.3571H292.871V19.9286H290.299V17.3571ZM292.871 17.3571H295.442V19.9286H292.871V17.3571ZM292.871 14.7857H295.442V17.3571H292.871V14.7857ZM295.442 14.7857H298.013V17.3571H295.442V14.7857ZM298.013 14.7857H300.585V17.3571H298.013V14.7857ZM298.013 17.3571H300.585V19.9286H298.013V17.3571ZM295.442 17.3571H298.013V19.9286H295.442V17.3571ZM295.442 19.9286H298.013V22.5H295.442V19.9286ZM298.013 19.9286H300.585V22.5H298.013V19.9286ZM300.585 17.3571H303.156V19.9286H300.585V17.3571ZM300.585 19.9286H303.156V22.5H300.585V19.9286ZM300.585 22.5H303.156V25.0714H300.585V22.5ZM300.585 25.0714H303.156V27.6429H300.585V25.0714ZM300.585 27.6429H303.156V30.2143H300.585V27.6429ZM300.585 30.2143H303.156V32.7857H300.585V30.2143ZM300.585 32.7857H303.156V35.3571H300.585V32.7857ZM300.585 35.3571H303.156V37.9286H300.585V35.3571ZM298.013 35.3571H300.585V37.9286H298.013V35.3571ZM298.013 32.7857H300.585V35.3571H298.013V32.7857ZM298.013 30.2143H300.585V32.7857H298.013V30.2143ZM298.013 27.6429H300.585V30.2143H298.013V27.6429ZM298.013 25.0714H300.585V27.6429H298.013V25.0714ZM298.013 22.5H300.585V25.0714H298.013V22.5ZM295.442 32.7857H298.013V35.3571H295.442V32.7857ZM295.442 35.3571H298.013V37.9286H295.442V35.3571ZM298.013 37.9286H300.585V40.5H298.013V37.9286ZM295.442 37.9286H298.013V40.5H295.442V37.9286ZM292.871 37.9286H295.442V40.5H292.871V37.9286ZM292.871 35.3571H295.442V37.9286H292.871V35.3571ZM290.299 37.9286H292.871V40.5H290.299V37.9286ZM287.728 37.9286H290.299V40.5H287.728V37.9286ZM287.728 35.3571H290.299V37.9286H287.728V35.3571ZM290.299 35.3571H292.871V37.9286H290.299V35.3571ZM290.299 32.7857H292.871V35.3571H290.299V32.7857ZM287.728 32.7857H290.299V35.3571H287.728V32.7857ZM285.156 35.3571H287.728V37.9286H285.156V35.3571ZM285.156 32.7857H287.728V35.3571H285.156V32.7857ZM285.156 30.2143H287.728V32.7857H285.156V30.2143ZM285.156 27.6429H287.728V30.2143H285.156V27.6429ZM285.156 25.0714H287.728V27.6429H285.156V25.0714ZM285.156 22.5H287.728V25.0714H285.156V22.5ZM285.156 19.9286H287.728V22.5H285.156V19.9286ZM287.728 19.9286H290.299V22.5H287.728V19.9286ZM285.156 17.3571H287.728V19.9286H285.156V17.3571ZM290.299 19.9286H292.871V22.5H290.299V19.9286ZM287.728 22.5H290.299V25.0714H287.728V22.5ZM287.728 25.0714H290.299V27.6429H287.728V25.0714ZM287.728 27.6429H290.299V30.2143H287.728V27.6429ZM287.728 30.2143H290.299V32.7857H287.728V30.2143ZM310.877 14.7857H313.449V17.3571H310.877V14.7857ZM308.306 14.7857H310.877V17.3571H308.306V14.7857ZM308.306 17.3571H310.877V19.9286H308.306V17.3571ZM310.877 17.3571H313.449V19.9286H310.877V17.3571ZM313.449 17.3571H316.02V19.9286H313.449V17.3571ZM313.449 14.7857H316.02V17.3571H313.449V14.7857ZM316.02 14.7857H318.592V17.3571H316.02V14.7857ZM318.592 14.7857H321.163V17.3571H318.592V14.7857ZM318.592 17.3571H321.163V19.9286H318.592V17.3571ZM316.02 17.3571H318.592V19.9286H316.02V17.3571ZM318.592 19.9286H321.163V22.5H318.592V19.9286ZM321.163 17.3571H323.734V19.9286H321.163V17.3571ZM321.163 19.9286H323.734V22.5H321.163V19.9286ZM321.163 32.7857H323.734V35.3571H321.163V32.7857ZM321.163 35.3571H323.734V37.9286H321.163V35.3571ZM318.592 35.3571H321.163V37.9286H318.592V35.3571ZM318.592 32.7857H321.163V35.3571H318.592V32.7857ZM316.02 35.3571H318.592V37.9286H316.02V35.3571ZM318.592 37.9286H321.163V40.5H318.592V37.9286ZM316.02 37.9286H318.592V40.5H316.02V37.9286ZM313.449 37.9286H316.02V40.5H313.449V37.9286ZM313.449 35.3571H316.02V37.9286H313.449V35.3571ZM310.877 37.9286H313.449V40.5H310.877V37.9286ZM308.306 37.9286H310.877V40.5H308.306V37.9286ZM308.306 35.3571H310.877V37.9286H308.306V35.3571ZM310.877 35.3571H313.449V37.9286H310.877V35.3571ZM310.877 32.7857H313.449V35.3571H310.877V32.7857ZM308.306 32.7857H310.877V35.3571H308.306V32.7857ZM305.734 35.3571H308.306V37.9286H305.734V35.3571ZM305.734 32.7857H308.306V35.3571H305.734V32.7857ZM305.734 30.2143H308.306V32.7857H305.734V30.2143ZM305.734 27.6429H308.306V30.2143H305.734V27.6429ZM305.734 25.0714H308.306V27.6429H305.734V25.0714ZM305.734 22.5H308.306V25.0714H305.734V22.5ZM305.734 19.9286H308.306V22.5H305.734V19.9286ZM308.306 19.9286H310.877V22.5H308.306V19.9286ZM305.734 17.3571H308.306V19.9286H305.734V17.3571ZM310.877 19.9286H313.449V22.5H310.877V19.9286ZM308.306 22.5H310.877V25.0714H308.306V22.5ZM308.306 25.0714H310.877V27.6429H308.306V25.0714ZM308.306 27.6429H310.877V30.2143H308.306V27.6429ZM308.306 30.2143H310.877V32.7857H308.306V30.2143ZM321.163 30.2143H323.734V32.7857H321.163V30.2143ZM318.592 30.2143H321.163V32.7857H318.592V30.2143ZM318.592 27.6429H321.163V30.2143H318.592V27.6429ZM321.163 27.6429H323.734V30.2143H321.163V27.6429ZM321.163 25.0714H323.734V27.6429H321.163V25.0714ZM318.592 25.0714H321.163V27.6429H318.592V25.0714ZM316.02 25.0714H318.592V27.6429H316.02V25.0714ZM313.449 25.0714H316.02V27.6429H313.449V25.0714ZM313.449 27.6429H316.02V30.2143H313.449V27.6429ZM316.02 27.6429H318.592V30.2143H316.02V27.6429Z" fill="#5888FF"/>
<defs>
<filter id="filter0_n_2970_192" x="5.09082" y="2.3335" width="46.1455" height="51.333" filterUnits="userSpaceOnUse" color-interpolation-filters="sRGB">
<feFlood flood-opacity="0" result="BackgroundImageFix"/>
<feBlend mode="normal" in="SourceGraphic" in2="BackgroundImageFix" result="shape"/>
<feTurbulence type="fractalNoise" baseFrequency="4.4285707473754883 4.4285707473754883" stitchTiles="stitch" numOctaves="3" result="noise" seed="7293" />
<feColorMatrix in="noise" type="luminanceToAlpha" result="alphaNoise" />
<feComponentTransfer in="alphaNoise" result="coloredNoise1">
<feFuncA type="discrete" tableValues="0 0 0 0 0 0 0 0 0 1 1 1 1 1 1 1 1 1 1 1 1 1 1 1 1 1 1 1 1 1 1 1 1 1 1 1 1 1 1 1 0 0 0 0 0 0 0 0 0 0 0 0 0 0 0 0 0 0 0 0 0 0 0 0 0 0 0 0 0 0 0 0 0 0 0 0 0 0 0 0 0 0 0 0 0 0 0 0 0 0 0 0 0 0 0 0 0 0 0 0 "/>
</feComponentTransfer>
<feComposite operator="in" in2="shape" in="coloredNoise1" result="noise1Clipped" />
<feComponentTransfer in="alphaNoise" result="coloredNoise2">
<feFuncA type="discrete" tableValues="0 0 0 0 0 0 0 0 0 0 0 0 0 0 0 0 0 0 0 0 0 0 0 0 0 0 0 0 0 0 0 0 0 0 0 0 0 0 0 0 0 0 0 0 0 0 0 0 0 0 0 0 0 0 0 0 0 0 0 0 1 1 1 1 1 1 1 1 1 1 1 1 1 1 1 1 1 1 1 1 1 1 1 1 1 1 1 1 1 1 1 0 0 0 0 0 0 0 0 0 "/>
</feComponentTransfer>
<feComposite operator="in" in2="shape" in="coloredNoise2" result="noise2Clipped" />
<feFlood flood-color="rgba(0, 212, 255, 0.25)" result="color1Flood" />
<feComposite operator="in" in2="noise1Clipped" in="color1Flood" result="color1" />
<feFlood flood-color="rgba(0, 60, 255, 0.25)" result="color2Flood" />
<feComposite operator="in" in2="noise2Clipped" in="color2Flood" result="color2" />
<feMerge result="effect1_noise_2970_192">
<feMergeNode in="shape" />
<feMergeNode in="color1" />
<feMergeNode in="color2" />
</feMerge>
</filter>
<radialGradient id="paint0_radial_2970_192" cx="0" cy="0" r="1" gradientUnits="userSpaceOnUse" gradientTransform="translate(28.1636 28) rotate(90) scale(27.9998 27.9994)">
<stop stop-color="#5465FF"/>
<stop offset="1" stop-color="#5888FF"/>
</radialGradient>
</defs>
</svg>
